<svg xmlns="http://www.w3.org/2000/svg" width="200" height="200" viewBox="0 0 200 200">

  <!-- App background flat blue -->
  <rect width="200" height="200" rx="44" ry="44" fill="#4783D0" />

  <g fill-rule="evenodd">
    <path d="
      M45,52
      A7,7 0 0,1 52,45
      L72,45
      A7,7 0 0,1 79,52
      L79,114
      A7,7 0 0,0 86,121
      L148,121
      A7,7 0 0,1 155,128
      L155,148
      A7,7 0 0,1 148,155
      L52,155
      A7,7 0 0,1 45,148
      Z
    " fill="white" />

    <!-- Notches on inner right edge of vertical arm only -->
    <rect x="67"  y="59"  width="12" height="4" rx="2" fill="#4783D0"/>
    <rect x="67"  y="73"  width="12" height="4" rx="2" fill="#4783D0"/>
    <rect x="67"  y="87"  width="12" height="4" rx="2" fill="#4783D0"/>
    <rect x="67"  y="101" width="12" height="4" rx="2" fill="#4783D0"/>
    <rect x="67"  y="115" width="12" height="4" rx="2" fill="#4783D0"/>

    <!-- Notches on inner top edge of horizontal arm -->
    <rect x="93"  y="121" width="4" height="12" rx="2" fill="#4783D0"/>
    <rect x="107" y="121" width="4" height="12" rx="2" fill="#4783D0"/>
    <rect x="121" y="121" width="4" height="12" rx="2" fill="#4783D0"/>
    <rect x="135" y="121" width="4" height="12" rx="2" fill="#4783D0"/>
    <rect x="149" y="121" width="4" height="12" rx="2" fill="#4783D0"/>
  </g>

</svg>
